<svg width="251" height="208" viewBox="0 0 251 208" fill="none" xmlns="http://www.w3.org/2000/svg">
<path d="M152.174 102.723C152.174 122.951 144.331 142.345 130.347 156.495C116.363 170.645 97.2185 178.583 76.9899 178.583C56.7613 178.583 37.6169 170.645 23.6326 156.495C9.64828 142.345 1.80566 122.951 1.80566 102.723C1.80566 82.4947 9.64828 63.1009 23.6326 48.9509C37.6169 34.8008 56.7613 26.8633 76.9899 26.8633C97.2185 26.8633 116.363 34.8008 130.347 48.9509C144.331 63.1009 152.174 82.4947 152.174 102.723Z" fill="#FC3D21"/>
<path d="M250.293 28.5293L135.122 84.1436C140.065 91.1384 142.923 99.2783 142.923 108.251C142.923 125.641 136.002 141.871 124.316 153.689C127.354 152.668 130.34 151.749 133.26 150.932L147.244 146.963L140.25 158.161L125.174 162.435L150.922 207.28L250.293 28.5293Z" fill="white" fill-opacity="0.7"/>
<path d="M102.99 107.579C105.795 108.6 108.752 109.11 111.709 109.11C116.48 109.11 121.096 107.893 125.174 105.797L233.155 0.658203L102.99 107.579Z" fill="#365589"/>
<path d="M233.154 0.658203L125.173 105.797C118.805 102.439 111.751 100.559 104.309 100.559C99.2796 100.559 94.463 101.478 90.027 103.14L1.80566 26.8633C37.5859 9.94043 76.9899 -1.26465 119.986 11.2383C162.982 23.7412 196.223 58.1992 211.332 102.723C213.918 89.0684 219.027 76.2461 226.319 64.9014L233.154 0.658203Z" fill="#365589"/>
</svg>
